<mxfile host="app.diagrams.net" modified="2022-09-05T07:51:27.657Z" agent="5.0 (X11)" etag="yqyQCdzf3nwFzHhiRHpV" version="20.2.8" type="github">
  <diagram name="Page-1" id="aaaa8250-4180-3840-79b5-4cada1eebb92">
    <mxGraphModel dx="2936" dy="1144" grid="1" gridSize="10" guides="1" tooltips="1" connect="1" arrows="1" fold="1" page="1" pageScale="1" pageWidth="850" pageHeight="1100" background="none" math="0" shadow="0">
      <root>
        <mxCell id="0" />
        <mxCell id="1" parent="0" />
        <mxCell id="bKiOtFBdCVwhzO1zmvgN-120" value="" style="rounded=0;whiteSpace=wrap;html=1;" parent="1" vertex="1">
          <mxGeometry x="1208.88" y="150" width="721.12" height="690" as="geometry" />
        </mxCell>
        <mxCell id="bKiOtFBdCVwhzO1zmvgN-82" value="" style="sketch=0;aspect=fixed;html=1;points=[];align=center;image;fontSize=12;image=img/lib/mscae/Blog_Storage.svg;" parent="1" vertex="1">
          <mxGeometry x="490" y="460" width="50" height="46" as="geometry" />
        </mxCell>
        <mxCell id="bKiOtFBdCVwhzO1zmvgN-14" value="" style="whiteSpace=wrap;html=1;aspect=fixed;" parent="1" vertex="1">
          <mxGeometry x="20" y="150" width="470" height="470" as="geometry" />
        </mxCell>
        <mxCell id="bKiOtFBdCVwhzO1zmvgN-5" value="" style="whiteSpace=wrap;html=1;aspect=fixed;" parent="1" vertex="1">
          <mxGeometry x="30" y="230" width="310" height="310" as="geometry" />
        </mxCell>
        <mxCell id="bKiOtFBdCVwhzO1zmvgN-3" value="Internet" style="ellipse;shape=cloud;whiteSpace=wrap;html=1;" parent="1" vertex="1">
          <mxGeometry x="760" y="381.4" width="170" height="110" as="geometry" />
        </mxCell>
        <mxCell id="bKiOtFBdCVwhzO1zmvgN-4" value="" style="sketch=0;aspect=fixed;html=1;points=[];align=center;image;fontSize=12;image=img/lib/mscae/Kubernetes.svg;" parent="1" vertex="1">
          <mxGeometry x="180" y="240" width="50" height="48" as="geometry" />
        </mxCell>
        <mxCell id="bKiOtFBdCVwhzO1zmvgN-7" value="" style="shape=image;imageAspect=0;aspect=fixed;verticalLabelPosition=bottom;verticalAlign=top;image=data:image/png,iVBORw0KGgoAAAANSUhEUgAAAWkAAACMCAMAAACJW6j5AAAAt1BMVEX/////xhw4R0X/wwAxQT//zj93gH7/xx8jNzTk5eUqPDk0REKqr67/wgD8/PwnOTdRXVyLkpG+wsEfNDH//fft7u7/+/NIVlSepKP09fVxenn/67s+TUvs7e3/9Nn/5KD/+er/4Zj/2n3/yzPS1dTHyspaZWSxtrX/013/6K//78b/1Wb/34//2Xf/5qZncW//8tL/0E6Ql5aAiIdga2nb3d3/9+L/7MAAIyD/1m7/6bX/yzv/2XolNmMvAAAM7UlEQVR4nO2d/UOyOhTH0y1CUFHRAK+WFWpPVuZb3brP//93XVBRds54CaYC+v0x2bTPxtk529l2deVT++V1MnsqZUNPs8nDx1Uh9TIhhJyaLyNSK73dnRqLcN1NMoZ5I0LeBqdGI1avmeTsipA/p4YjUpOscnZFXk+NR5xmWQZdKtXeTg1IlN6yDdpBfX9qRGL0nnXQjgH5OjUkEbrLPuhS6eb21JgEKNOjoacijIofeQDtaHBqUKmV+eFwI/JwalCpdWqEcTU7Nai0+qidGmFMkcGpUaXUQz6Mh0M670H5d25I591Qz8QjIbXaAearyOOpUaWU6Il/Qh5fPgcv9zPh9v/51KhSSjAO8ugFcx/Xgvv19Uk5pZdYGsywJTj4zDvpG5EwyDtT97XIui+kfSITtu5PobY676RFsiBweVWoC5l30iL7NGLxdSG9l0DS2ONtX0jvJRAFjuLaB31jciaBKAha7WuLjIvyTlqk9biQDtOF9LF0IX0sXUgfSyJJv8PKL6R9upA+li6kj6UL6WPpsKQvMeJeF9LH0oW0IPWH1Xl3OTKMxlRqjod99IBI0igj49ik+13Jr24LPzJkH/GescGf+epW+d/bGS/KuqZQqrqilCqaXl60OsUlXdGpXzoGU6Gs5O7m7y2dxpDW5H2r3VU0qpaBVKpRyS4saZn5ZxVE2mpQ5gnasLakNUiKJ8ohPVxqNPB5bbpnfV6kpywUVfPMaWLSkhzIeV1C3hU5K9JNwFNfeZ8kJN3pKVFlNO+1OSfSY52FII93HyUjvSqHduhtIcM6N9I2AK3N958lIl3pxQDtDgZ10aR/Mk26X2b9A6Xr+zAR6WUs0M43LQ5PWlzlqUnXgduhbl/q5KTHcnSJjTT7nEhL7NilKkwUl4B0HQ2GTsCiKZqsoK5Ol2dE2gQdULOZki1Z5SqEdBU0DlWm5tBe2cNql8JGkO0Dk74VV3lK0i3odgC3ZGg0eBqxqBnSDfDZaOcyXvWb4OvcgiJJ/5NZ0ivQ/3BYXefoqt5lDYFu+r4LWKONg+EJOJSqcWjSR84WCyJt9UD/m0bX5ajPDqIqM48yZhsPWKMrk20IvXMepGEQbtRDq9nKZuMSSof+T5tsK/RAYdC4jqE+B9IgCFeVShzQY5lhpRhsKbb11CUszraENhRKGh0NkQ3SVeB26MOIataas6W0qcV+zg6WmDTrN2qtMyANg3DOrDVWfcq+BzoaQgFpaD2ubMZQnwPpigaCcO5sPqzIYG2DNkaPAAdQgxZpxdQgF9x6jHEQTtFrztFQYTDSno2fAaMsleBv2X6+We36ty+U9EvGSDuv7FUTuL09K7qaKhgLG7wRVAIxN5yiXemKE5nrtDeaLubmWKw/nTXSzis7BKOhvIquBbgqWpfrE5ow4lbmzHOrpjlu2X3L8v5aZNL6qg5mLmK4HdYSxBxz/nNDNCel9EJrLzTpOrAdWrTbUWHDFVXlZDKsZeHJaVVWTZzncQ6kKXDw6CKyBjAWlnstqxNg2bucdQBVkbvjDv95gSgyR7oMpjsUjgvBygSgy72e2mtMm0MOPeine82plaUWD7ZAFDgaH4jczpyANIQQNbG04K0HuG6api6w/9FA2TR72N0WehNEWg+0H1HoCXHpSZflIKO7VqcRklJA5Tl0QVbB36ZSTWmCthGIAp91IvSQJwGkwyfxYJICEJxiwqsuoG30LuOLCERRIp/gpwg9EEcA6QjnoxqOWkV2XgrPq6H60ldC6KkT3+wP+SP0KBURpMtKaIgIFxsh6jLo1fVpRAoTlRe7LxR7kgqzkvh59DNrYpAOd/SaXgXOKKjg/FE6gtZHCn8NXJvjRaVCYTDux53YqsWQ9qXicbVwO6mqqSNpbko9lE+goYCxinMOWKl66xCkS+R1sKn39l70QW5iSEd5eo490BqtbaRnd+GYJyNnbzXSgrw9r3FbhyBdIqXvn5eX++8b4SfmiSHtrjOFqqH456Kh5eaEmXVThfEObJ71Vwq102uRtYRXK4o0SBdAsljzsgBjnswpbZnl0H6t9joHIX0oJSRNka2Ns7q1pwgieo0b/NRbhowH0P1vkM6ANJ3OQa9U1RiLAXuB4rwNGGvZUo+z22UrwdliB1Yi0s6LizIVY60k7gmCFAYj8ElruDAC9mK45r3YpFW64gTNeqx8j636EFqYmbdaC8o12Uq94KTXU0p1A6aMxksW2wiWjkrLscaGjlmLzWE6sBKQ3gYaLdQAsXJrtgLpBkr0SuRwhFe+zEKTpt7+CrhNQm38gvQyajmhbqEhdgzHRsdQF5n0LjHAhoMiJ1PGw9aHdjigT1udymo4NpvSssGZTLEBaXV5HqTRmh8v7aO/GlYX00YPrkw1eKStpdGjsqys94rjHaZ4GDbOhHQFTrkpvpxzJ+4wpVFPVdw99hR6cR24GLluib7uy29QOG8IjHh66UnHib2FhOepdl80of3QfekClX8V6oFTR6BOsJ1ALeOmY5rNE3iNjLQzTOTp+/7r53EWQpKQ2eP96+S/tKxTkbYgaerbjehPwEWkqyBG3HiIKz9plJO3bls2b2SUjjQpPWyvBbh7DgJJXjdrXu2flKxT7t1C4cveh/BvpEDpuXBA3NTJ9Glust+C3VAgpSJd89/m+xCQcbA//bt9n8qGpCNtwfDF13mZbgv8ZZjYt40v+8yfeeaDbSHnpyS30+SavQ6cvxDOLOLevqVIAEm58xPtiN3PyjHp+6wpgBGi1z5gwNNQOAOmS5wYMTHnG7Qfn3MJD0q2+Uh+ZW7afeMj2Kl325kZo8v62iPgHu4yRsA2FwrimQrcLZZ03oOQV3wJJyePhnMB3M9TQtZpSaPkUM1750EHVape8DJsQD98lzACknpVfbHahzxWFeS4unOtyUBPYGaHqza6VYR7K1lSc5361IkpnNFUPU+PHb3KmmHaKyeOmaJpuf2JIBVYGZUbi/F6N7Mp9VCjrhLNmpInlOq40V9IEKXabDRIZK5Tk8bhixdF28CGu0GMwttp75sExKmmKlVkzd2kjxYE1rb/95zxsXie0CXPT+2AJ+8SmOv0Z9YsIJxdSgIvQxdLVf3hTqzTE3zlfs35b/AtyfFJJzHX6Ul3UPjibS+qhCwC7qUzw948NurNMPo760GeWc+O1SuEdzMIfrj98EtzLeDEK7Q3ZedKwLMSuMDA9MYy8rSrjbb7+n/F+QZlSDN6RgXgpUWMPr9/Za4FkIbTPj5fIiL70d1aAVfF4Y6YINDbvKf4fdrx7IKNgasB6qNRt4R//MaEiDgvDy0p7lMSxpw1KZ8o9Jgd1aXwMusG2p1UEZs0mQwi/s9HDraoMn/i5zqJII3y+FV1Nx29MoLTY1RZ4qYutNTwbq1qjV30GJfzdYBntxdvAwB5iyp1+xrXXAshjc5b8qckmGV+2hfVRoE7uOYBZTacDZ9pj9WnOaE30ie/ZPQ9v3cxb6wUcoLs1UgBp8L6k0878x5KRVIVfRq2aaNvGjoPtlNu1PKvlMX5H2uPwZ6dpz9BjRTjot+XWOZazKnIK3j8cZeZh6vbTf/5xoqsj8yo7JC6bS5l2Q1Ydociy7q2NMGsU/R/SGb8SM+vz8Dp6UiHZa04AfrRTvqutMzFdGQYRkMyhzEzy+r22JSWbpllV2pWOQd9R1oP8oROOEC6fayFgarNQp29bRWRrDN+pnqkwkmTUoz71KP9B/I4iKwleNXmHEiT70FkBS9xpjDIDbopCuuf8BYrMml81CDSIO5V14ETgD7dhnbrApPGZ9BAtWM7w251z9Ejaxjq4pKOCqUjX3dUIW+hhlXYQagFJh0+y+EMYb+ez4+OgNDE6xmQjgg5BtFuGbfWWbi5DrnNOe+kg5mEWun7UtI1bv4a5E5o5rUwpAP7dG0QXChe+ByEuhZmrtFqQmFIBwMJxPEZ17MLrDrEXAcfVFFY0rWAlzz+NGcY60BzzZvkLjhpbq6GE3qnMRz+6gPCz+AjQfJOOtjLQyfQOPq4FrZNmXD99c9gzzHvpINRYPORLCMmhDWeT0XJOcUhHRKNg38tZVIul/UMJDWEHZFVYNJs7PKVOqmf+x3+FOyru7D5rryTDsUw2Xl6IYsq6eSfAX8PfbLIpB1L+uAul7S/ng9xYIf3JaXNl0R5NXknHXHQGqmRp+uDHIzCfEnp+iZ0gcwVJxc7V+Ik8mdT0akjGdf3qQnGVYzMkWwreEYnYwpO286JXvJCOmxuMR/KC+m8D4iOoc4H6tybacFnRB9Qg1ODSq9cdOrohfocSPCRuofRTcRCfT4UsvKfFeHLHvKpt6yjruXdl94p+bb5o6j299SAxCnTvboADp5P7weerksuUoqxpyBP+pxkkjWJk+SeN31MDnNCd2IRUiu9RW/cyKPaXw9vM6F3sKTQ0/Pf+4L4dmv9D+qeOOxemE2lAAAAAElFTkSuQmCC;" parent="1" vertex="1">
          <mxGeometry x="40" y="240" width="128.93" height="50" as="geometry" />
        </mxCell>
        <mxCell id="bKiOtFBdCVwhzO1zmvgN-8" value="" style="shape=image;imageAspect=0;aspect=fixed;verticalLabelPosition=bottom;verticalAlign=top;image=https://fr-wiki.ikoula.com/images/4/4a/Nginx.png;" parent="1" vertex="1">
          <mxGeometry x="240" y="440" width="100" height="100" as="geometry" />
        </mxCell>
        <mxCell id="bKiOtFBdCVwhzO1zmvgN-9" value="" style="endArrow=classic;startArrow=classic;html=1;rounded=0;entryX=0.347;entryY=0.86;entryDx=0;entryDy=0;entryPerimeter=0;edgeStyle=orthogonalEdgeStyle;exitX=1;exitY=0.5;exitDx=0;exitDy=0;" parent="1" source="bKiOtFBdCVwhzO1zmvgN-8" target="bKiOtFBdCVwhzO1zmvgN-3" edge="1">
          <mxGeometry width="50" height="50" relative="1" as="geometry">
            <mxPoint x="390" y="770" as="sourcePoint" />
            <mxPoint x="440" y="720" as="targetPoint" />
            <Array as="points">
              <mxPoint x="390" y="490" />
              <mxPoint x="390" y="520" />
              <mxPoint x="819" y="520" />
            </Array>
          </mxGeometry>
        </mxCell>
        <mxCell id="bKiOtFBdCVwhzO1zmvgN-10" value="" style="shape=image;verticalLabelPosition=bottom;labelBackgroundColor=default;verticalAlign=top;aspect=fixed;imageAspect=0;image=https://www.aubelio.fr/media/2363/logo-scaleway-dedibox.png;" parent="1" vertex="1">
          <mxGeometry x="10" y="140" width="177.27" height="60" as="geometry" />
        </mxCell>
        <mxCell id="bKiOtFBdCVwhzO1zmvgN-68" style="edgeStyle=orthogonalEdgeStyle;rounded=0;orthogonalLoop=1;jettySize=auto;html=1;exitX=0.5;exitY=0;exitDx=0;exitDy=0;" parent="1" source="bKiOtFBdCVwhzO1zmvgN-15" target="bKiOtFBdCVwhzO1zmvgN-7" edge="1">
          <mxGeometry relative="1" as="geometry" />
        </mxCell>
        <mxCell id="bKiOtFBdCVwhzO1zmvgN-15" value="" style="shape=image;imageAspect=0;aspect=fixed;verticalLabelPosition=bottom;verticalAlign=top;image=https://www.gridbus.org/wp-content/uploads/2020/02/wiregaurd.png;" parent="1" vertex="1">
          <mxGeometry x="394.43" y="366.15" width="100" height="93.85" as="geometry" />
        </mxCell>
        <mxCell id="bKiOtFBdCVwhzO1zmvgN-16" value="" style="shape=image;verticalLabelPosition=bottom;labelBackgroundColor=default;verticalAlign=top;aspect=fixed;imageAspect=0;image=https://www.recia.fr/wp-content/uploads/2015/06/debian-logo-horizontal.gif;" parent="1" vertex="1">
          <mxGeometry x="340" y="151.21" width="150" height="42.41" as="geometry" />
        </mxCell>
        <mxCell id="bKiOtFBdCVwhzO1zmvgN-25" value="" style="sketch=0;aspect=fixed;html=1;points=[];align=center;image;fontSize=12;image=img/lib/mscae/Blog_Storage.svg;" parent="1" vertex="1">
          <mxGeometry x="490" y="276" width="50" height="46" as="geometry" />
        </mxCell>
        <mxCell id="bKiOtFBdCVwhzO1zmvgN-26" value="" style="sketch=0;aspect=fixed;html=1;points=[];align=center;image;fontSize=12;image=img/lib/mscae/Blog_Storage.svg;" parent="1" vertex="1">
          <mxGeometry x="490" y="244" width="50" height="46" as="geometry" />
        </mxCell>
        <mxCell id="bKiOtFBdCVwhzO1zmvgN-27" value="" style="sketch=0;aspect=fixed;html=1;points=[];align=center;image;fontSize=12;image=img/lib/mscae/Blog_Storage.svg;" parent="1" vertex="1">
          <mxGeometry x="490" y="214" width="50" height="46" as="geometry" />
        </mxCell>
        <mxCell id="bKiOtFBdCVwhzO1zmvgN-28" value="" style="sketch=0;aspect=fixed;html=1;points=[];align=center;image;fontSize=12;image=img/lib/mscae/Blog_Storage.svg;" parent="1" vertex="1">
          <mxGeometry x="490" y="180" width="50" height="46" as="geometry" />
        </mxCell>
        <mxCell id="bKiOtFBdCVwhzO1zmvgN-29" value="" style="sketch=0;aspect=fixed;html=1;points=[];align=center;image;fontSize=12;image=img/lib/mscae/Blog_Storage.svg;" parent="1" vertex="1">
          <mxGeometry x="490" y="147" width="50" height="46" as="geometry" />
        </mxCell>
        <mxCell id="bKiOtFBdCVwhzO1zmvgN-31" value="&lt;div&gt;Home network&lt;/div&gt;&lt;div&gt;&lt;br&gt;&lt;/div&gt;" style="html=1;verticalLabelPosition=bottom;align=center;labelBackgroundColor=#ffffff;verticalAlign=top;strokeWidth=2;strokeColor=#0080F0;shadow=0;dashed=0;shape=mxgraph.ios7.icons.home;" parent="1" vertex="1">
          <mxGeometry x="1230" y="151.21" width="60" height="61" as="geometry" />
        </mxCell>
        <mxCell id="bKiOtFBdCVwhzO1zmvgN-32" value="" style="shape=image;verticalLabelPosition=bottom;labelBackgroundColor=default;verticalAlign=top;aspect=fixed;imageAspect=0;image=https://upload.wikimedia.org/wikipedia/en/thumb/9/93/Ubiquiti_Networks_2016.svg/1200px-Ubiquiti_Networks_2016.svg.png;" parent="1" vertex="1">
          <mxGeometry x="1210" y="352" width="154.34" height="130" as="geometry" />
        </mxCell>
        <mxCell id="bKiOtFBdCVwhzO1zmvgN-33" value="" style="sketch=0;aspect=fixed;html=1;points=[];align=center;image;fontSize=12;image=img/lib/mscae/Blog_Storage.svg;" parent="1" vertex="1">
          <mxGeometry x="1160" y="440.00000000000006" width="50" height="46" as="geometry" />
        </mxCell>
        <mxCell id="bKiOtFBdCVwhzO1zmvgN-34" value="" style="sketch=0;aspect=fixed;html=1;points=[];align=center;image;fontSize=12;image=img/lib/mscae/Blog_Storage.svg;" parent="1" vertex="1">
          <mxGeometry x="1160" y="407.20000000000005" width="50" height="46" as="geometry" />
        </mxCell>
        <mxCell id="bKiOtFBdCVwhzO1zmvgN-35" value="" style="sketch=0;aspect=fixed;html=1;points=[];align=center;image;fontSize=12;image=img/lib/mscae/Blog_Storage.svg;" parent="1" vertex="1">
          <mxGeometry x="1160" y="373.59999999999997" width="50" height="46" as="geometry" />
        </mxCell>
        <mxCell id="bKiOtFBdCVwhzO1zmvgN-36" value="" style="sketch=0;aspect=fixed;html=1;points=[];align=center;image;fontSize=12;image=img/lib/mscae/Blog_Storage.svg;" parent="1" vertex="1">
          <mxGeometry x="1160" y="340" width="50" height="46" as="geometry" />
        </mxCell>
        <mxCell id="bKiOtFBdCVwhzO1zmvgN-37" value="" style="sketch=0;aspect=fixed;html=1;points=[];align=center;image;fontSize=12;image=img/lib/mscae/Blog_Storage.svg;" parent="1" vertex="1">
          <mxGeometry x="1160" y="260" width="50" height="46" as="geometry" />
        </mxCell>
        <mxCell id="bKiOtFBdCVwhzO1zmvgN-38" value="" style="sketch=0;aspect=fixed;html=1;points=[];align=center;image;fontSize=12;image=img/lib/mscae/Blog_Storage.svg;" parent="1" vertex="1">
          <mxGeometry x="1160" y="230" width="50" height="46" as="geometry" />
        </mxCell>
        <mxCell id="bKiOtFBdCVwhzO1zmvgN-39" value="" style="sketch=0;aspect=fixed;html=1;points=[];align=center;image;fontSize=12;image=img/lib/mscae/Blog_Storage.svg;" parent="1" vertex="1">
          <mxGeometry x="1160" y="193" width="50" height="46" as="geometry" />
        </mxCell>
        <mxCell id="bKiOtFBdCVwhzO1zmvgN-40" value="" style="sketch=0;aspect=fixed;html=1;points=[];align=center;image;fontSize=12;image=img/lib/mscae/Blog_Storage.svg;" parent="1" vertex="1">
          <mxGeometry x="1160" y="151.21" width="50" height="46" as="geometry" />
        </mxCell>
        <mxCell id="bKiOtFBdCVwhzO1zmvgN-41" value="" style="sketch=0;aspect=fixed;html=1;points=[];align=center;image;fontSize=12;image=img/lib/mscae/Blog_Storage.svg;" parent="1" vertex="1">
          <mxGeometry x="1160" y="296.15" width="50" height="46" as="geometry" />
        </mxCell>
        <mxCell id="bKiOtFBdCVwhzO1zmvgN-46" value="" style="sketch=0;aspect=fixed;html=1;points=[];align=center;image;fontSize=12;image=img/lib/mscae/Blog_Storage.svg;" parent="1" vertex="1">
          <mxGeometry x="1160" y="578.79" width="50" height="46" as="geometry" />
        </mxCell>
        <mxCell id="bKiOtFBdCVwhzO1zmvgN-47" value="" style="sketch=0;aspect=fixed;html=1;points=[];align=center;image;fontSize=12;image=img/lib/mscae/Blog_Storage.svg;" parent="1" vertex="1">
          <mxGeometry x="1160" y="548.79" width="50" height="46" as="geometry" />
        </mxCell>
        <mxCell id="bKiOtFBdCVwhzO1zmvgN-48" value="" style="sketch=0;aspect=fixed;html=1;points=[];align=center;image;fontSize=12;image=img/lib/mscae/Blog_Storage.svg;" parent="1" vertex="1">
          <mxGeometry x="1160" y="511.79" width="50" height="46" as="geometry" />
        </mxCell>
        <mxCell id="bKiOtFBdCVwhzO1zmvgN-49" value="" style="sketch=0;aspect=fixed;html=1;points=[];align=center;image;fontSize=12;image=img/lib/mscae/Blog_Storage.svg;" parent="1" vertex="1">
          <mxGeometry x="1160" y="470" width="50" height="46" as="geometry" />
        </mxCell>
        <mxCell id="bKiOtFBdCVwhzO1zmvgN-51" value="" style="sketch=0;aspect=fixed;html=1;points=[];align=center;image;fontSize=12;image=img/lib/mscae/Virtual_Network.svg;rotation=0;" parent="1" vertex="1">
          <mxGeometry x="961.43" y="430" width="41.43" height="23.2" as="geometry" />
        </mxCell>
        <mxCell id="bKiOtFBdCVwhzO1zmvgN-52" value="" style="sketch=0;aspect=fixed;html=1;points=[];align=center;image;fontSize=12;image=img/lib/mscae/Virtual_Network.svg;rotation=0;" parent="1" vertex="1">
          <mxGeometry x="1002.86" y="430" width="41.43" height="23.2" as="geometry" />
        </mxCell>
        <mxCell id="bKiOtFBdCVwhzO1zmvgN-53" value="" style="sketch=0;aspect=fixed;html=1;points=[];align=center;image;fontSize=12;image=img/lib/mscae/Virtual_Network.svg;rotation=0;" parent="1" vertex="1">
          <mxGeometry x="1044.29" y="430" width="41.43" height="23.2" as="geometry" />
        </mxCell>
        <mxCell id="bKiOtFBdCVwhzO1zmvgN-54" value="" style="sketch=0;aspect=fixed;html=1;points=[];align=center;image;fontSize=12;image=img/lib/mscae/Virtual_Network.svg;rotation=45;" parent="1" vertex="1">
          <mxGeometry x="1320" y="506.40999999999997" width="38.55" height="21.59" as="geometry" />
        </mxCell>
        <mxCell id="bKiOtFBdCVwhzO1zmvgN-55" value="" style="sketch=0;aspect=fixed;html=1;points=[];align=center;image;fontSize=12;image=img/lib/mscae/Virtual_Network.svg;rotation=45;" parent="1" vertex="1">
          <mxGeometry x="1288.86" y="480.36" width="40.02" height="22.41" as="geometry" />
        </mxCell>
        <mxCell id="bKiOtFBdCVwhzO1zmvgN-56" value="" style="sketch=0;aspect=fixed;html=1;points=[];align=center;image;fontSize=12;image=img/lib/mscae/Virtual_Network.svg;rotation=0;" parent="1" vertex="1">
          <mxGeometry x="920" y="430" width="41.43" height="23.2" as="geometry" />
        </mxCell>
        <mxCell id="bKiOtFBdCVwhzO1zmvgN-58" value="" style="whiteSpace=wrap;html=1;aspect=fixed;" parent="1" vertex="1">
          <mxGeometry x="1380" y="538.39" width="201.61" height="201.61" as="geometry" />
        </mxCell>
        <mxCell id="bKiOtFBdCVwhzO1zmvgN-60" value="" style="whiteSpace=wrap;html=1;aspect=fixed;" parent="1" vertex="1">
          <mxGeometry x="1540" y="156" width="360" height="360" as="geometry" />
        </mxCell>
        <mxCell id="bKiOtFBdCVwhzO1zmvgN-61" value="" style="shape=image;verticalLabelPosition=bottom;labelBackgroundColor=default;verticalAlign=top;aspect=fixed;imageAspect=0;image=https://gplexpert.com/wp-content/uploads/2019/07/PROXMOX-768x269.png;" parent="1" vertex="1">
          <mxGeometry x="1540" y="140" width="314.29" height="110" as="geometry" />
        </mxCell>
        <mxCell id="bKiOtFBdCVwhzO1zmvgN-30" value="Raspberry Pi" style="shape=image;html=1;verticalAlign=top;verticalLabelPosition=bottom;labelBackgroundColor=#ffffff;imageAspect=0;aspect=fixed;image=https://cdn1.iconfinder.com/data/icons/fruit-136/64/Fruit_iconfree_Filled_Outline_raspberry-healthy-organic-food-fruit_icon-128.png" parent="1" vertex="1">
          <mxGeometry x="1520.21" y="540" width="61.4" height="61.4" as="geometry" />
        </mxCell>
        <mxCell id="bKiOtFBdCVwhzO1zmvgN-63" value="Dns Server&#xa;" style="shape=image;verticalLabelPosition=bottom;labelBackgroundColor=default;verticalAlign=top;aspect=fixed;imageAspect=0;image=https://net-security.fr/images/Pi-hole-vortex2.jpg;" parent="1" vertex="1">
          <mxGeometry x="1468" y="610" width="100" height="100" as="geometry" />
        </mxCell>
        <mxCell id="bKiOtFBdCVwhzO1zmvgN-69" value="" style="sketch=0;aspect=fixed;html=1;points=[];align=center;image;fontSize=12;image=img/lib/mscae/Virtual_Network.svg;rotation=0;" parent="1" vertex="1">
          <mxGeometry x="1080" y="430" width="41.43" height="23.2" as="geometry" />
        </mxCell>
        <mxCell id="bKiOtFBdCVwhzO1zmvgN-70" value="" style="sketch=0;aspect=fixed;html=1;points=[];align=center;image;fontSize=12;image=img/lib/mscae/Virtual_Network.svg;rotation=0;" parent="1" vertex="1">
          <mxGeometry x="1121.43" y="430" width="41.43" height="23.2" as="geometry" />
        </mxCell>
        <mxCell id="bKiOtFBdCVwhzO1zmvgN-72" value="" style="sketch=0;aspect=fixed;html=1;points=[];align=center;image;fontSize=12;image=img/lib/mscae/Virtual_Network.svg;rotation=45;" parent="1" vertex="1">
          <mxGeometry x="1345.45" y="531" width="38.55" height="21.59" as="geometry" />
        </mxCell>
        <mxCell id="bKiOtFBdCVwhzO1zmvgN-73" value="" style="sketch=0;aspect=fixed;html=1;points=[];align=center;image;fontSize=12;image=img/lib/mscae/Blog_Storage.svg;" parent="1" vertex="1">
          <mxGeometry x="490" y="435" width="50" height="46" as="geometry" />
        </mxCell>
        <mxCell id="bKiOtFBdCVwhzO1zmvgN-76" value="" style="sketch=0;aspect=fixed;html=1;points=[];align=center;image;fontSize=12;image=img/lib/mscae/Blog_Storage.svg;" parent="1" vertex="1">
          <mxGeometry x="490" y="339" width="50" height="46" as="geometry" />
        </mxCell>
        <mxCell id="bKiOtFBdCVwhzO1zmvgN-77" value="" style="sketch=0;aspect=fixed;html=1;points=[];align=center;image;fontSize=12;image=img/lib/mscae/Blog_Storage.svg;" parent="1" vertex="1">
          <mxGeometry x="490" y="306" width="50" height="46" as="geometry" />
        </mxCell>
        <mxCell id="bKiOtFBdCVwhzO1zmvgN-78" value="" style="sketch=0;aspect=fixed;html=1;points=[];align=center;image;fontSize=12;image=img/lib/mscae/Blog_Storage.svg;" parent="1" vertex="1">
          <mxGeometry x="490" y="589" width="50" height="46" as="geometry" />
        </mxCell>
        <mxCell id="bKiOtFBdCVwhzO1zmvgN-79" value="" style="sketch=0;aspect=fixed;html=1;points=[];align=center;image;fontSize=12;image=img/lib/mscae/Blog_Storage.svg;" parent="1" vertex="1">
          <mxGeometry x="490" y="557" width="50" height="46" as="geometry" />
        </mxCell>
        <mxCell id="bKiOtFBdCVwhzO1zmvgN-80" value="" style="sketch=0;aspect=fixed;html=1;points=[];align=center;image;fontSize=12;image=img/lib/mscae/Blog_Storage.svg;" parent="1" vertex="1">
          <mxGeometry x="490" y="527" width="50" height="46" as="geometry" />
        </mxCell>
        <mxCell id="bKiOtFBdCVwhzO1zmvgN-93" value="" style="sketch=0;aspect=fixed;html=1;points=[];align=center;image;fontSize=12;image=img/lib/mscae/Virtual_Network.svg;rotation=0;" parent="1" vertex="1">
          <mxGeometry x="574.43" y="403.4" width="41.43" height="23.2" as="geometry" />
        </mxCell>
        <mxCell id="bKiOtFBdCVwhzO1zmvgN-94" value="" style="sketch=0;aspect=fixed;html=1;points=[];align=center;image;fontSize=12;image=img/lib/mscae/Virtual_Network.svg;rotation=0;" parent="1" vertex="1">
          <mxGeometry x="615.86" y="403.4" width="41.43" height="23.2" as="geometry" />
        </mxCell>
        <mxCell id="bKiOtFBdCVwhzO1zmvgN-95" value="" style="sketch=0;aspect=fixed;html=1;points=[];align=center;image;fontSize=12;image=img/lib/mscae/Virtual_Network.svg;rotation=0;" parent="1" vertex="1">
          <mxGeometry x="657.29" y="403.4" width="41.43" height="23.2" as="geometry" />
        </mxCell>
        <mxCell id="bKiOtFBdCVwhzO1zmvgN-96" value="" style="sketch=0;aspect=fixed;html=1;points=[];align=center;image;fontSize=12;image=img/lib/mscae/Virtual_Network.svg;rotation=0;" parent="1" vertex="1">
          <mxGeometry x="533" y="403.4" width="41.43" height="23.2" as="geometry" />
        </mxCell>
        <mxCell id="bKiOtFBdCVwhzO1zmvgN-97" value="" style="sketch=0;aspect=fixed;html=1;points=[];align=center;image;fontSize=12;image=img/lib/mscae/Virtual_Network.svg;rotation=0;" parent="1" vertex="1">
          <mxGeometry x="693" y="403.4" width="41.43" height="23.2" as="geometry" />
        </mxCell>
        <mxCell id="bKiOtFBdCVwhzO1zmvgN-98" value="" style="sketch=0;aspect=fixed;html=1;points=[];align=center;image;fontSize=12;image=img/lib/mscae/Virtual_Network.svg;rotation=0;" parent="1" vertex="1">
          <mxGeometry x="734.4300000000001" y="403.4" width="41.43" height="23.2" as="geometry" />
        </mxCell>
        <mxCell id="bKiOtFBdCVwhzO1zmvgN-99" value="" style="sketch=0;aspect=fixed;html=1;points=[];align=center;image;fontSize=12;image=img/lib/mscae/Virtual_Network.svg;rotation=0;" parent="1" vertex="1">
          <mxGeometry x="494.42999999999995" y="403.4" width="41.43" height="23.2" as="geometry" />
        </mxCell>
        <mxCell id="bKiOtFBdCVwhzO1zmvgN-103" value="" style="sketch=0;aspect=fixed;html=1;points=[];align=center;image;fontSize=12;image=img/lib/mscae/Virtual_Network.svg;rotation=0;" parent="1" vertex="1">
          <mxGeometry x="1349.4299999999998" y="282" width="41.43" height="23.2" as="geometry" />
        </mxCell>
        <mxCell id="bKiOtFBdCVwhzO1zmvgN-104" value="" style="sketch=0;aspect=fixed;html=1;points=[];align=center;image;fontSize=12;image=img/lib/mscae/Virtual_Network.svg;rotation=0;" parent="1" vertex="1">
          <mxGeometry x="1390.8600000000001" y="282" width="41.43" height="23.2" as="geometry" />
        </mxCell>
        <mxCell id="bKiOtFBdCVwhzO1zmvgN-105" value="" style="sketch=0;aspect=fixed;html=1;points=[];align=center;image;fontSize=12;image=img/lib/mscae/Virtual_Network.svg;rotation=0;" parent="1" vertex="1">
          <mxGeometry x="1432.29" y="282" width="41.43" height="23.2" as="geometry" />
        </mxCell>
        <mxCell id="bKiOtFBdCVwhzO1zmvgN-106" value="" style="sketch=0;aspect=fixed;html=1;points=[];align=center;image;fontSize=12;image=img/lib/mscae/Virtual_Network.svg;rotation=0;" parent="1" vertex="1">
          <mxGeometry x="1309.43" y="282.8" width="38.57" height="21.6" as="geometry" />
        </mxCell>
        <mxCell id="bKiOtFBdCVwhzO1zmvgN-107" value="" style="sketch=0;aspect=fixed;html=1;points=[];align=center;image;fontSize=12;image=img/lib/mscae/Virtual_Network.svg;rotation=0;" parent="1" vertex="1">
          <mxGeometry x="1470" y="282" width="39.43" height="22.08" as="geometry" />
        </mxCell>
        <mxCell id="bKiOtFBdCVwhzO1zmvgN-108" value="" style="sketch=0;aspect=fixed;html=1;points=[];align=center;image;fontSize=12;image=img/lib/mscae/Virtual_Network.svg;rotation=0;" parent="1" vertex="1">
          <mxGeometry x="1509.43" y="282" width="41.43" height="23.2" as="geometry" />
        </mxCell>
        <mxCell id="bKiOtFBdCVwhzO1zmvgN-111" value="" style="sketch=0;aspect=fixed;html=1;points=[];align=center;image;fontSize=12;image=img/lib/mscae/Virtual_Network.svg;rotation=90;" parent="1" vertex="1">
          <mxGeometry x="1268" y="296.15000000000003" width="41.43" height="23.2" as="geometry" />
        </mxCell>
        <mxCell id="bKiOtFBdCVwhzO1zmvgN-112" value="" style="sketch=0;aspect=fixed;html=1;points=[];align=center;image;fontSize=12;image=img/lib/mscae/Virtual_Network.svg;rotation=90;" parent="1" vertex="1">
          <mxGeometry x="1268" y="334.80000000000007" width="41.43" height="23.2" as="geometry" />
        </mxCell>
        <mxCell id="bKiOtFBdCVwhzO1zmvgN-113" value="" style="sketch=0;aspect=fixed;html=1;points=[];align=center;image;fontSize=12;image=img/lib/mscae/Virtual_Network.svg;rotation=0;" parent="1" vertex="1">
          <mxGeometry x="1550" y="282.8" width="41.43" height="23.2" as="geometry" />
        </mxCell>
        <mxCell id="bKiOtFBdCVwhzO1zmvgN-116" value="" style="rounded=0;whiteSpace=wrap;html=1;" parent="1" vertex="1">
          <mxGeometry x="1591.43" y="244" width="228.57" height="206" as="geometry" />
        </mxCell>
        <mxCell id="bKiOtFBdCVwhzO1zmvgN-64" value="Backup " style="shape=image;verticalLabelPosition=bottom;labelBackgroundColor=default;verticalAlign=top;aspect=fixed;imageAspect=0;image=https://miro.medium.com/max/450/1*mf-StMKCKG-ExzquzzV5yw.png;" parent="1" vertex="1">
          <mxGeometry x="1600" y="337.2" width="129.63" height="70" as="geometry" />
        </mxCell>
        <mxCell id="bKiOtFBdCVwhzO1zmvgN-125" value="" style="sketch=0;aspect=fixed;html=1;points=[];align=center;image;fontSize=12;image=img/lib/mscae/Blog_Storage.svg;" parent="1" vertex="1">
          <mxGeometry x="1158.88" y="728.79" width="50" height="46" as="geometry" />
        </mxCell>
        <mxCell id="bKiOtFBdCVwhzO1zmvgN-126" value="" style="sketch=0;aspect=fixed;html=1;points=[];align=center;image;fontSize=12;image=img/lib/mscae/Blog_Storage.svg;" parent="1" vertex="1">
          <mxGeometry x="1158.88" y="698.79" width="50" height="46" as="geometry" />
        </mxCell>
        <mxCell id="bKiOtFBdCVwhzO1zmvgN-127" value="" style="sketch=0;aspect=fixed;html=1;points=[];align=center;image;fontSize=12;image=img/lib/mscae/Blog_Storage.svg;" parent="1" vertex="1">
          <mxGeometry x="1158.88" y="661.79" width="50" height="46" as="geometry" />
        </mxCell>
        <mxCell id="bKiOtFBdCVwhzO1zmvgN-128" value="" style="sketch=0;aspect=fixed;html=1;points=[];align=center;image;fontSize=12;image=img/lib/mscae/Blog_Storage.svg;" parent="1" vertex="1">
          <mxGeometry x="1158.88" y="620" width="50" height="46" as="geometry" />
        </mxCell>
        <mxCell id="bKiOtFBdCVwhzO1zmvgN-129" value="" style="sketch=0;aspect=fixed;html=1;points=[];align=center;image;fontSize=12;image=img/lib/mscae/Blog_Storage.svg;" parent="1" vertex="1">
          <mxGeometry x="1158.88" y="764.94" width="50" height="46" as="geometry" />
        </mxCell>
        <mxCell id="bKiOtFBdCVwhzO1zmvgN-134" value="" style="sketch=0;aspect=fixed;html=1;points=[];align=center;image;fontSize=12;image=img/lib/mscae/Blog_Storage.svg;" parent="1" vertex="1">
          <mxGeometry x="1160" y="800" width="50" height="46" as="geometry" />
        </mxCell>
        <mxCell id="opTng-uXuP1dB_o0qM7V-1" value="" style="shape=image;imageAspect=0;aspect=fixed;verticalLabelPosition=bottom;verticalAlign=top;image=data:image/png,iVBORw0KGgoAAAANSUhEUgAAAWkAAACMCAMAAACJW6j5AAAAt1BMVEX/////xhw4R0X/wwAxQT//zj93gH7/xx8jNzTk5eUqPDk0REKqr67/wgD8/PwnOTdRXVyLkpG+wsEfNDH//fft7u7/+/NIVlSepKP09fVxenn/67s+TUvs7e3/9Nn/5KD/+er/4Zj/2n3/yzPS1dTHyspaZWSxtrX/013/6K//78b/1Wb/34//2Xf/5qZncW//8tL/0E6Ql5aAiIdga2nb3d3/9+L/7MAAIyD/1m7/6bX/yzv/2XolNmMvAAAM7UlEQVR4nO2d/UOyOhTH0y1CUFHRAK+WFWpPVuZb3brP//93XVBRds54CaYC+v0x2bTPxtk529l2deVT++V1MnsqZUNPs8nDx1Uh9TIhhJyaLyNSK73dnRqLcN1NMoZ5I0LeBqdGI1avmeTsipA/p4YjUpOscnZFXk+NR5xmWQZdKtXeTg1IlN6yDdpBfX9qRGL0nnXQjgH5OjUkEbrLPuhS6eb21JgEKNOjoacijIofeQDtaHBqUKmV+eFwI/JwalCpdWqEcTU7Nai0+qidGmFMkcGpUaXUQz6Mh0M670H5d25I591Qz8QjIbXaAearyOOpUaWU6Il/Qh5fPgcv9zPh9v/51KhSSjAO8ugFcx/Xgvv19Uk5pZdYGsywJTj4zDvpG5EwyDtT97XIui+kfSITtu5PobY676RFsiBweVWoC5l30iL7NGLxdSG9l0DS2ONtX0jvJRAFjuLaB31jciaBKAha7WuLjIvyTlqk9biQDtOF9LF0IX0sXUgfSyJJv8PKL6R9upA+li6kj6UL6WPpsKQvMeJeF9LH0oW0IPWH1Xl3OTKMxlRqjod99IBI0igj49ik+13Jr24LPzJkH/GescGf+epW+d/bGS/KuqZQqrqilCqaXl60OsUlXdGpXzoGU6Gs5O7m7y2dxpDW5H2r3VU0qpaBVKpRyS4saZn5ZxVE2mpQ5gnasLakNUiKJ8ohPVxqNPB5bbpnfV6kpywUVfPMaWLSkhzIeV1C3hU5K9JNwFNfeZ8kJN3pKVFlNO+1OSfSY52FII93HyUjvSqHduhtIcM6N9I2AK3N958lIl3pxQDtDgZ10aR/Mk26X2b9A6Xr+zAR6WUs0M43LQ5PWlzlqUnXgduhbl/q5KTHcnSJjTT7nEhL7NilKkwUl4B0HQ2GTsCiKZqsoK5Ol2dE2gQdULOZki1Z5SqEdBU0DlWm5tBe2cNql8JGkO0Dk74VV3lK0i3odgC3ZGg0eBqxqBnSDfDZaOcyXvWb4OvcgiJJ/5NZ0ivQ/3BYXefoqt5lDYFu+r4LWKONg+EJOJSqcWjSR84WCyJt9UD/m0bX5ajPDqIqM48yZhsPWKMrk20IvXMepGEQbtRDq9nKZuMSSof+T5tsK/RAYdC4jqE+B9IgCFeVShzQY5lhpRhsKbb11CUszraENhRKGh0NkQ3SVeB26MOIataas6W0qcV+zg6WmDTrN2qtMyANg3DOrDVWfcq+BzoaQgFpaD2ubMZQnwPpigaCcO5sPqzIYG2DNkaPAAdQgxZpxdQgF9x6jHEQTtFrztFQYTDSno2fAaMsleBv2X6+We36ty+U9EvGSDuv7FUTuL09K7qaKhgLG7wRVAIxN5yiXemKE5nrtDeaLubmWKw/nTXSzis7BKOhvIquBbgqWpfrE5ow4lbmzHOrpjlu2X3L8v5aZNL6qg5mLmK4HdYSxBxz/nNDNCel9EJrLzTpOrAdWrTbUWHDFVXlZDKsZeHJaVVWTZzncQ6kKXDw6CKyBjAWlnstqxNg2bucdQBVkbvjDv95gSgyR7oMpjsUjgvBygSgy72e2mtMm0MOPeine82plaUWD7ZAFDgaH4jczpyANIQQNbG04K0HuG6api6w/9FA2TR72N0WehNEWg+0H1HoCXHpSZflIKO7VqcRklJA5Tl0QVbB36ZSTWmCthGIAp91IvSQJwGkwyfxYJICEJxiwqsuoG30LuOLCERRIp/gpwg9EEcA6QjnoxqOWkV2XgrPq6H60ldC6KkT3+wP+SP0KBURpMtKaIgIFxsh6jLo1fVpRAoTlRe7LxR7kgqzkvh59DNrYpAOd/SaXgXOKKjg/FE6gtZHCn8NXJvjRaVCYTDux53YqsWQ9qXicbVwO6mqqSNpbko9lE+goYCxinMOWKl66xCkS+R1sKn39l70QW5iSEd5eo490BqtbaRnd+GYJyNnbzXSgrw9r3FbhyBdIqXvn5eX++8b4SfmiSHtrjOFqqH456Kh5eaEmXVThfEObJ71Vwq102uRtYRXK4o0SBdAsljzsgBjnswpbZnl0H6t9joHIX0oJSRNka2Ns7q1pwgieo0b/NRbhowH0P1vkM6ANJ3OQa9U1RiLAXuB4rwNGGvZUo+z22UrwdliB1Yi0s6LizIVY60k7gmCFAYj8ElruDAC9mK45r3YpFW64gTNeqx8j636EFqYmbdaC8o12Uq94KTXU0p1A6aMxksW2wiWjkrLscaGjlmLzWE6sBKQ3gYaLdQAsXJrtgLpBkr0SuRwhFe+zEKTpt7+CrhNQm38gvQyajmhbqEhdgzHRsdQF5n0LjHAhoMiJ1PGw9aHdjigT1udymo4NpvSssGZTLEBaXV5HqTRmh8v7aO/GlYX00YPrkw1eKStpdGjsqys94rjHaZ4GDbOhHQFTrkpvpxzJ+4wpVFPVdw99hR6cR24GLluib7uy29QOG8IjHh66UnHib2FhOepdl80of3QfekClX8V6oFTR6BOsJ1ALeOmY5rNE3iNjLQzTOTp+/7r53EWQpKQ2eP96+S/tKxTkbYgaerbjehPwEWkqyBG3HiIKz9plJO3bls2b2SUjjQpPWyvBbh7DgJJXjdrXu2flKxT7t1C4cveh/BvpEDpuXBA3NTJ9Glust+C3VAgpSJd89/m+xCQcbA//bt9n8qGpCNtwfDF13mZbgv8ZZjYt40v+8yfeeaDbSHnpyS30+SavQ6cvxDOLOLevqVIAEm58xPtiN3PyjHp+6wpgBGi1z5gwNNQOAOmS5wYMTHnG7Qfn3MJD0q2+Uh+ZW7afeMj2Kl325kZo8v62iPgHu4yRsA2FwrimQrcLZZ03oOQV3wJJyePhnMB3M9TQtZpSaPkUM1750EHVape8DJsQD98lzACknpVfbHahzxWFeS4unOtyUBPYGaHqza6VYR7K1lSc5361IkpnNFUPU+PHb3KmmHaKyeOmaJpuf2JIBVYGZUbi/F6N7Mp9VCjrhLNmpInlOq40V9IEKXabDRIZK5Tk8bhixdF28CGu0GMwttp75sExKmmKlVkzd2kjxYE1rb/95zxsXie0CXPT+2AJ+8SmOv0Z9YsIJxdSgIvQxdLVf3hTqzTE3zlfs35b/AtyfFJJzHX6Ul3UPjibS+qhCwC7qUzw948NurNMPo760GeWc+O1SuEdzMIfrj98EtzLeDEK7Q3ZedKwLMSuMDA9MYy8rSrjbb7+n/F+QZlSDN6RgXgpUWMPr9/Za4FkIbTPj5fIiL70d1aAVfF4Y6YINDbvKf4fdrx7IKNgasB6qNRt4R//MaEiDgvDy0p7lMSxpw1KZ8o9Jgd1aXwMusG2p1UEZs0mQwi/s9HDraoMn/i5zqJII3y+FV1Nx29MoLTY1RZ4qYutNTwbq1qjV30GJfzdYBntxdvAwB5iyp1+xrXXAshjc5b8qckmGV+2hfVRoE7uOYBZTacDZ9pj9WnOaE30ie/ZPQ9v3cxb6wUcoLs1UgBp8L6k0878x5KRVIVfRq2aaNvGjoPtlNu1PKvlMX5H2uPwZ6dpz9BjRTjot+XWOZazKnIK3j8cZeZh6vbTf/5xoqsj8yo7JC6bS5l2Q1Ydociy7q2NMGsU/R/SGb8SM+vz8Dp6UiHZa04AfrRTvqutMzFdGQYRkMyhzEzy+r22JSWbpllV2pWOQd9R1oP8oROOEC6fayFgarNQp29bRWRrDN+pnqkwkmTUoz71KP9B/I4iKwleNXmHEiT70FkBS9xpjDIDbopCuuf8BYrMml81CDSIO5V14ETgD7dhnbrApPGZ9BAtWM7w251z9Ejaxjq4pKOCqUjX3dUIW+hhlXYQagFJh0+y+EMYb+ez4+OgNDE6xmQjgg5BtFuGbfWWbi5DrnNOe+kg5mEWun7UtI1bv4a5E5o5rUwpAP7dG0QXChe+ByEuhZmrtFqQmFIBwMJxPEZ17MLrDrEXAcfVFFY0rWAlzz+NGcY60BzzZvkLjhpbq6GE3qnMRz+6gPCz+AjQfJOOtjLQyfQOPq4FrZNmXD99c9gzzHvpINRYPORLCMmhDWeT0XJOcUhHRKNg38tZVIul/UMJDWEHZFVYNJs7PKVOqmf+x3+FOyru7D5rryTDsUw2Xl6IYsq6eSfAX8PfbLIpB1L+uAul7S/ng9xYIf3JaXNl0R5NXknHXHQGqmRp+uDHIzCfEnp+iZ0gcwVJxc7V+Ik8mdT0akjGdf3qQnGVYzMkWwreEYnYwpO286JXvJCOmxuMR/KC+m8D4iOoc4H6tybacFnRB9Qg1ODSq9cdOrohfocSPCRuofRTcRCfT4UsvKfFeHLHvKpt6yjruXdl94p+bb5o6j299SAxCnTvboADp5P7weerksuUoqxpyBP+pxkkjWJk+SeN31MDnNCd2IRUiu9RW/cyKPaXw9vM6F3sKTQ0/Pf+4L4dmv9D+qeOOxemE2lAAAAAElFTkSuQmCC;" parent="1" vertex="1">
          <mxGeometry x="1600" y="250.07" width="87.29" height="33.85" as="geometry" />
        </mxCell>
        <mxCell id="opTng-uXuP1dB_o0qM7V-2" value="" style="shape=image;imageAspect=0;aspect=fixed;verticalLabelPosition=bottom;verticalAlign=top;image=data:image/png,iVBORw0KGgoAAAANSUhEUgAAAWkAAACMCAMAAACJW6j5AAAAt1BMVEX/////xhw4R0X/wwAxQT//zj93gH7/xx8jNzTk5eUqPDk0REKqr67/wgD8/PwnOTdRXVyLkpG+wsEfNDH//fft7u7/+/NIVlSepKP09fVxenn/67s+TUvs7e3/9Nn/5KD/+er/4Zj/2n3/yzPS1dTHyspaZWSxtrX/013/6K//78b/1Wb/34//2Xf/5qZncW//8tL/0E6Ql5aAiIdga2nb3d3/9+L/7MAAIyD/1m7/6bX/yzv/2XolNmMvAAAM7UlEQVR4nO2d/UOyOhTH0y1CUFHRAK+WFWpPVuZb3brP//93XVBRds54CaYC+v0x2bTPxtk529l2deVT++V1MnsqZUNPs8nDx1Uh9TIhhJyaLyNSK73dnRqLcN1NMoZ5I0LeBqdGI1avmeTsipA/p4YjUpOscnZFXk+NR5xmWQZdKtXeTg1IlN6yDdpBfX9qRGL0nnXQjgH5OjUkEbrLPuhS6eb21JgEKNOjoacijIofeQDtaHBqUKmV+eFwI/JwalCpdWqEcTU7Nai0+qidGmFMkcGpUaXUQz6Mh0M670H5d25I591Qz8QjIbXaAearyOOpUaWU6Il/Qh5fPgcv9zPh9v/51KhSSjAO8ugFcx/Xgvv19Uk5pZdYGsywJTj4zDvpG5EwyDtT97XIui+kfSITtu5PobY676RFsiBweVWoC5l30iL7NGLxdSG9l0DS2ONtX0jvJRAFjuLaB31jciaBKAha7WuLjIvyTlqk9biQDtOF9LF0IX0sXUgfSyJJv8PKL6R9upA+li6kj6UL6WPpsKQvMeJeF9LH0oW0IPWH1Xl3OTKMxlRqjod99IBI0igj49ik+13Jr24LPzJkH/GescGf+epW+d/bGS/KuqZQqrqilCqaXl60OsUlXdGpXzoGU6Gs5O7m7y2dxpDW5H2r3VU0qpaBVKpRyS4saZn5ZxVE2mpQ5gnasLakNUiKJ8ohPVxqNPB5bbpnfV6kpywUVfPMaWLSkhzIeV1C3hU5K9JNwFNfeZ8kJN3pKVFlNO+1OSfSY52FII93HyUjvSqHduhtIcM6N9I2AK3N958lIl3pxQDtDgZ10aR/Mk26X2b9A6Xr+zAR6WUs0M43LQ5PWlzlqUnXgduhbl/q5KTHcnSJjTT7nEhL7NilKkwUl4B0HQ2GTsCiKZqsoK5Ol2dE2gQdULOZki1Z5SqEdBU0DlWm5tBe2cNql8JGkO0Dk74VV3lK0i3odgC3ZGg0eBqxqBnSDfDZaOcyXvWb4OvcgiJJ/5NZ0ivQ/3BYXefoqt5lDYFu+r4LWKONg+EJOJSqcWjSR84WCyJt9UD/m0bX5ajPDqIqM48yZhsPWKMrk20IvXMepGEQbtRDq9nKZuMSSof+T5tsK/RAYdC4jqE+B9IgCFeVShzQY5lhpRhsKbb11CUszraENhRKGh0NkQ3SVeB26MOIataas6W0qcV+zg6WmDTrN2qtMyANg3DOrDVWfcq+BzoaQgFpaD2ubMZQnwPpigaCcO5sPqzIYG2DNkaPAAdQgxZpxdQgF9x6jHEQTtFrztFQYTDSno2fAaMsleBv2X6+We36ty+U9EvGSDuv7FUTuL09K7qaKhgLG7wRVAIxN5yiXemKE5nrtDeaLubmWKw/nTXSzis7BKOhvIquBbgqWpfrE5ow4lbmzHOrpjlu2X3L8v5aZNL6qg5mLmK4HdYSxBxz/nNDNCel9EJrLzTpOrAdWrTbUWHDFVXlZDKsZeHJaVVWTZzncQ6kKXDw6CKyBjAWlnstqxNg2bucdQBVkbvjDv95gSgyR7oMpjsUjgvBygSgy72e2mtMm0MOPeine82plaUWD7ZAFDgaH4jczpyANIQQNbG04K0HuG6api6w/9FA2TR72N0WehNEWg+0H1HoCXHpSZflIKO7VqcRklJA5Tl0QVbB36ZSTWmCthGIAp91IvSQJwGkwyfxYJICEJxiwqsuoG30LuOLCERRIp/gpwg9EEcA6QjnoxqOWkV2XgrPq6H60ldC6KkT3+wP+SP0KBURpMtKaIgIFxsh6jLo1fVpRAoTlRe7LxR7kgqzkvh59DNrYpAOd/SaXgXOKKjg/FE6gtZHCn8NXJvjRaVCYTDux53YqsWQ9qXicbVwO6mqqSNpbko9lE+goYCxinMOWKl66xCkS+R1sKn39l70QW5iSEd5eo490BqtbaRnd+GYJyNnbzXSgrw9r3FbhyBdIqXvn5eX++8b4SfmiSHtrjOFqqH456Kh5eaEmXVThfEObJ71Vwq102uRtYRXK4o0SBdAsljzsgBjnswpbZnl0H6t9joHIX0oJSRNka2Ns7q1pwgieo0b/NRbhowH0P1vkM6ANJ3OQa9U1RiLAXuB4rwNGGvZUo+z22UrwdliB1Yi0s6LizIVY60k7gmCFAYj8ElruDAC9mK45r3YpFW64gTNeqx8j636EFqYmbdaC8o12Uq94KTXU0p1A6aMxksW2wiWjkrLscaGjlmLzWE6sBKQ3gYaLdQAsXJrtgLpBkr0SuRwhFe+zEKTpt7+CrhNQm38gvQyajmhbqEhdgzHRsdQF5n0LjHAhoMiJ1PGw9aHdjigT1udymo4NpvSssGZTLEBaXV5HqTRmh8v7aO/GlYX00YPrkw1eKStpdGjsqys94rjHaZ4GDbOhHQFTrkpvpxzJ+4wpVFPVdw99hR6cR24GLluib7uy29QOG8IjHh66UnHib2FhOepdl80of3QfekClX8V6oFTR6BOsJ1ALeOmY5rNE3iNjLQzTOTp+/7r53EWQpKQ2eP96+S/tKxTkbYgaerbjehPwEWkqyBG3HiIKz9plJO3bls2b2SUjjQpPWyvBbh7DgJJXjdrXu2flKxT7t1C4cveh/BvpEDpuXBA3NTJ9Glust+C3VAgpSJd89/m+xCQcbA//bt9n8qGpCNtwfDF13mZbgv8ZZjYt40v+8yfeeaDbSHnpyS30+SavQ6cvxDOLOLevqVIAEm58xPtiN3PyjHp+6wpgBGi1z5gwNNQOAOmS5wYMTHnG7Qfn3MJD0q2+Uh+ZW7afeMj2Kl325kZo8v62iPgHu4yRsA2FwrimQrcLZZ03oOQV3wJJyePhnMB3M9TQtZpSaPkUM1750EHVape8DJsQD98lzACknpVfbHahzxWFeS4unOtyUBPYGaHqza6VYR7K1lSc5361IkpnNFUPU+PHb3KmmHaKyeOmaJpuf2JIBVYGZUbi/F6N7Mp9VCjrhLNmpInlOq40V9IEKXabDRIZK5Tk8bhixdF28CGu0GMwttp75sExKmmKlVkzd2kjxYE1rb/95zxsXie0CXPT+2AJ+8SmOv0Z9YsIJxdSgIvQxdLVf3hTqzTE3zlfs35b/AtyfFJJzHX6Ul3UPjibS+qhCwC7qUzw948NurNMPo760GeWc+O1SuEdzMIfrj98EtzLeDEK7Q3ZedKwLMSuMDA9MYy8rSrjbb7+n/F+QZlSDN6RgXgpUWMPr9/Za4FkIbTPj5fIiL70d1aAVfF4Y6YINDbvKf4fdrx7IKNgasB6qNRt4R//MaEiDgvDy0p7lMSxpw1KZ8o9Jgd1aXwMusG2p1UEZs0mQwi/s9HDraoMn/i5zqJII3y+FV1Nx29MoLTY1RZ4qYutNTwbq1qjV30GJfzdYBntxdvAwB5iyp1+xrXXAshjc5b8qckmGV+2hfVRoE7uOYBZTacDZ9pj9WnOaE30ie/ZPQ9v3cxb6wUcoLs1UgBp8L6k0878x5KRVIVfRq2aaNvGjoPtlNu1PKvlMX5H2uPwZ6dpz9BjRTjot+XWOZazKnIK3j8cZeZh6vbTf/5xoqsj8yo7JC6bS5l2Q1Ydociy7q2NMGsU/R/SGb8SM+vz8Dp6UiHZa04AfrRTvqutMzFdGQYRkMyhzEzy+r22JSWbpllV2pWOQd9R1oP8oROOEC6fayFgarNQp29bRWRrDN+pnqkwkmTUoz71KP9B/I4iKwleNXmHEiT70FkBS9xpjDIDbopCuuf8BYrMml81CDSIO5V14ETgD7dhnbrApPGZ9BAtWM7w251z9Ejaxjq4pKOCqUjX3dUIW+hhlXYQagFJh0+y+EMYb+ez4+OgNDE6xmQjgg5BtFuGbfWWbi5DrnNOe+kg5mEWun7UtI1bv4a5E5o5rUwpAP7dG0QXChe+ByEuhZmrtFqQmFIBwMJxPEZ17MLrDrEXAcfVFFY0rWAlzz+NGcY60BzzZvkLjhpbq6GE3qnMRz+6gPCz+AjQfJOOtjLQyfQOPq4FrZNmXD99c9gzzHvpINRYPORLCMmhDWeT0XJOcUhHRKNg38tZVIul/UMJDWEHZFVYNJs7PKVOqmf+x3+FOyru7D5rryTDsUw2Xl6IYsq6eSfAX8PfbLIpB1L+uAul7S/ng9xYIf3JaXNl0R5NXknHXHQGqmRp+uDHIzCfEnp+iZ0gcwVJxc7V+Ik8mdT0akjGdf3qQnGVYzMkWwreEYnYwpO286JXvJCOmxuMR/KC+m8D4iOoc4H6tybacFnRB9Qg1ODSq9cdOrohfocSPCRuofRTcRCfT4UsvKfFeHLHvKpt6yjruXdl94p+bb5o6j299SAxCnTvboADp5P7weerksuUoqxpyBP+pxkkjWJk+SeN31MDnNCd2IRUiu9RW/cyKPaXw9vM6F3sKTQ0/Pf+4L4dmv9D+qeOOxemE2lAAAAAElFTkSuQmCC;" parent="1" vertex="1">
          <mxGeometry x="1386.43" y="544.9399999999998" width="87.29" height="33.85" as="geometry" />
        </mxCell>
        <mxCell id="opTng-uXuP1dB_o0qM7V-3" value="Dashy&#xa;" style="shape=image;imageAspect=0;aspect=fixed;verticalLabelPosition=bottom;verticalAlign=top;image=https://dashy.to/img/dashy.png;" parent="1" vertex="1">
          <mxGeometry x="1720" y="260.72" width="81.43" height="81.43" as="geometry" />
        </mxCell>
      </root>
    </mxGraphModel>
  </diagram>
</mxfile>
